<?xml version="1.0" encoding="UTF-8" standalone="no"?>
<svg
   xmlns:dc="http://purl.org/dc/elements/1.1/"
   xmlns:cc="http://creativecommons.org/ns#"
   xmlns:rdf="http://www.w3.org/1999/02/22-rdf-syntax-ns#"
   xmlns:svg="http://www.w3.org/2000/svg"
   xmlns="http://www.w3.org/2000/svg"
   xmlns:xlink="http://www.w3.org/1999/xlink"
   id="svg1025"
   version="1.1"
   viewBox="0 0 80 80"
   height="80mm"
   width="80mm">
   <style type="text/css">
      .gufa {
         animation-name: gufan;
         animation-duration: 5s;
         animation-iteration-count: infinite;
         animation-direction: alternate;
         top: 0;
      }
      @keyframes gufan {
         0% {fill: #FFAD1F; fill-opacity: 0.8;}
         50% {fill: #FFE651; fill-opacity: 0.3;}
         100% {fill: FFAD1F; fill-opacity: 0.7;}
      }
      .gufar {
         animation-name: guff;
         animation-duration: 3s;
         animation-iteration-count: infinite;
         animation-direction: alternate;
         top: 0;
      }
      @keyframes guff {
         0% {fill: #FFE651; fill-opacity: 0.2;}
         50% {fill: #FFAD1F; fill-opacity: 0.7;}
         100% {fill: FFE651; fill-opacity: 0.3;}
      }
   </style>
  <defs
     id="defs1019">
    <linearGradient
       id="linearGradient907">
      <stop
         id="stop903"
         offset="0"
         style="stop-color:#333333;stop-opacity:1;" />
      <stop
         id="stop905"
         offset="1"
         style="stop-color:#333333;stop-opacity:0;" />
    </linearGradient>
    <linearGradient
       id="linearGradient846">
      <stop
         id="stop842"
         offset="0"
         style="stop-color:#803300;stop-opacity:1" />
      <stop
         id="stop844"
         offset="1"
         style="stop-color:#d45500;stop-opacity:1" />
    </linearGradient>
    <radialGradient
       gradientUnits="userSpaceOnUse"
       gradientTransform="matrix(0.86278657,-0.24805335,0.11756915,0.41549775,-27.436197,166.83107)"
       r="37.545085"
       fy="267.39493"
       fx="35.503181"
       cy="267.39493"
       cx="35.503181"
       id="radialGradient848"
       xlink:href="#linearGradient846" />
    <radialGradient
       gradientUnits="userSpaceOnUse"
       gradientTransform="matrix(1,0,0,0.22222221,0,53.38748)"
       r="33.074604"
       fy="68.641045"
       fx="41.359959"
       cy="68.641045"
       cx="41.359959"
       id="radialGradient909"
       xlink:href="#linearGradient907" />
  </defs>
  <metadata
     id="metadata1022">
    <rdf:RDF>
      <cc:Work
         rdf:about="">
        <dc:format>image/svg+xml</dc:format>
        <dc:type
           rdf:resource="http://purl.org/dc/dcmitype/StillImage" />
        <dc:title></dc:title>
      </cc:Work>
    </rdf:RDF>
  </metadata>
  <g
     id="layer3">
    <ellipse
       ry="7.3499117"
       rx="33.074604"
       cy="68.641045"
       cx="41.359959"
       id="path875"
       style="fill:url(#radialGradient909);fill-opacity:1;stroke:none;stroke-width:0.19310136;stroke-miterlimit:4;stroke-dasharray:none;stroke-opacity:1" />
  </g>
  <g
     id="layer2">
    <ellipse
       ry="16.391203"
       rx="34.678226"
       cy="56.927059"
       cx="38.553635"
       id="path856"
       style="fill:#ffe680;fill-opacity:1;stroke:none;stroke-width:0.18407136;stroke-miterlimit:4;stroke-dasharray:none;stroke-opacity:1" />
  </g>
  <g
     transform="translate(0,-217)"
     id="layer1">
    <path
       style="fill:url(#radialGradient848);fill-opacity:1;stroke-width:0.66823447"
       class="st1"
       d="m 62.379376,261.94707 c 1.744497,5.95128 -0.6978,11.26263 -0.6978,11.26263 -0.209339,-7.93503 -4.535693,-12.15852 -6.419751,-13.69433 -4.256574,-1.08788 -9.001608,-1.79179 -14.095541,-1.98376 3.768115,6.97515 0.488459,14.07829 0.488459,14.07829 -0.279119,-8.63896 -5.303273,-12.92643 -6.838431,-14.07829 -4.814813,0.25596 -9.350507,0.95988 -13.397742,2.04774 3.349436,6.78318 0.279119,13.63035 0.279119,13.63035 -0.209339,-6.07925 -2.721416,-9.98279 -4.745033,-12.15852 -7.8851298,3.00763 -12.979063,7.55108 -12.979063,12.67046 0,8.95892 15.49114,16.25403 34.610835,16.25403 19.119693,0 34.610833,-7.29511 34.610833,-16.25403 -0.06978,-4.60744 -4.186794,-8.83092 -10.815885,-11.77457 z"
       id="path4548" />
    <path
       id="path4550"
       d="m 52.331069,225.08754 c 2.860976,2.87965 1.465378,6.52721 -0.27912,9.72682 -1.046698,1.91977 -2.651636,3.96752 -2.860976,6.33523 -0.279119,3.51958 4.117015,5.18337 6.070852,6.01527 0.907139,0.38396 -0.628019,2.94365 -1.465378,2.62368 -3.977455,-1.5998 -7.885129,-4.03151 -6.070852,-9.66282 1.256038,-3.90353 8.164249,-10.62272 4.256575,-14.46225 -0.62802,-0.63992 -0.3489,-1.27984 0.348899,-0.57593 z"
       class="st1 gufa"
       style="fill:#ffe680;stroke-width:0.66823441">
      <title
         id="title918">gufa3</title>
    </path>
    <path
       id="path4552"
       d="m 26.512503,222.52785 c 2.860976,2.87965 1.465378,6.52721 -0.27912,9.72682 -1.046698,1.91977 -2.651636,3.96752 -2.860976,6.33523 -0.279119,3.51958 4.117015,5.18337 6.070852,6.01527 0.907139,0.38396 -0.628019,2.94365 -1.465378,2.62369 -3.977455,-1.59981 -7.885129,-4.03152 -6.070852,-9.66283 1.256039,-3.90353 8.164249,-10.62271 4.256575,-14.46225 -0.55824,-0.70391 -0.3489,-1.27984 0.348899,-0.57593 z"
       class="st1 gufa"
       style="fill:#ffe680;stroke-width:0.66823441">
      <title
         id="title914">gufa1</title>
    </path>
    <path
       id="path4554"
       d="m 38.584427,218.8163 c 3.209876,3.96752 1.604938,9.0869 -0.279119,13.50236 -1.186259,2.75167 -2.930757,5.50334 -3.140096,8.89492 -0.3489,4.92741 4.535694,7.23113 6.768651,8.38299 1.046698,0.51194 -0.697799,4.15949 -1.604938,3.71155 -4.396134,-2.23973 -8.722489,-5.63132 -6.698871,-13.50236 1.395598,-5.43934 9.001608,-14.78221 4.745033,-20.15756 -0.837358,-0.95988 -0.558239,-1.79178 0.20934,-0.8319 z"
       class="st1 gufar"
       style="fill:#ffe680;stroke-width:0.66823441">
      <title
         id="title916">gufa2</title>
    </path>
    <path
       transform="matrix(0.96407109,0,0,0.96825842,-0.03411448,5.1603831)"
       id="path852"
       d="m 10.423511,286.17559 c 2.926409,1.6323 5.976757,3.04235 9.116111,4.21399 8.882223,3.31494 18.5222,4.69448 27.945982,3.65763 9.423783,-1.03684 18.6118,-4.52368 26.147148,-10.27705 0.30405,-0.23215 0.610147,-0.4728 0.829181,-0.78643 0.109517,-0.15681 0.195943,-0.33114 0.241573,-0.51689 0.04563,-0.18575 0.04947,-0.38326 -0.0017,-0.56757 -0.06858,-0.24715 -0.234667,-0.46186 -0.444037,-0.61002 -0.20937,-0.14815 -0.459889,-0.23232 -0.714325,-0.26468 -0.508873,-0.0647 -1.019572,0.0711 -1.514331,0.20653 -9.855583,2.69868 -19.727313,5.79599 -29.934188,6.28083 -10.2775,0.4882 -20.756389,-1.78882 -29.609291,-7.03205 -0.675188,-0.39989 -1.34236,-0.81734 -2.054125,-1.14776 -0.7117659,-0.33043 -1.4754955,-0.57352 -2.2597079,-0.60181 -0.7842125,-0.0283 -1.5926051,0.17208 -2.2120519,0.65382 -0.3097233,0.24087 -0.5684489,0.54951 -0.7388824,0.90292 -0.1704335,0.35341 -0.251037,0.75166 -0.2174424,1.14258 0.041117,0.47846 0.2502699,0.93133 0.5344557,1.31844 0.2841859,0.3871 0.6416796,0.71418 1.0101991,1.02209 1.1706058,0.97807 2.4794393,1.79045 3.8754078,2.40543"
       style="fill:#803300;fill-opacity:1;stroke:none;stroke-width:0.26458332px;stroke-linecap:butt;stroke-linejoin:miter;stroke-opacity:1" />
  </g>
</svg>
